<svg xmlns="http://www.w3.org/2000/svg" viewBox="0 0 138.84 80.15"><defs><style>.cls-1{fill:#cc4e27;}.cls-2{fill:#f89721;}</style></defs><title>JPLOGO</title><g id="Layer_2" data-name="Layer 2"><g id="Working_Layer" data-name="Working Layer"><path class="cls-1" d="M137.13,41.06,125.37,30.51,91.89,67.83l11.76,10.55L118.19,78l20.08-22.39ZM116.34,60.3l-4.55.13,8.37-9.33.36,4.53.36,4.53Z"/><path class="cls-1" d="M123.9,29.19,80.37,77.71l-14.53.43L54.08,67.59,99,17.51l11.2-.61Z"/><path class="cls-1" d="M102.14,10.55,39.2,79.67l-14.53.43L1.14,59,0,44.5l3.35-3.73,14.53-.43L29.64,50.89,75.84.43,90.38,0Z"/><path class="cls-2" d="M137.39,44.38,125.63,33.83,93.68,69.44,105.44,80l14.23-.09,19.17-21.37ZM117.46,62.65c-1.36,0-2.72,0-4.45,0l8-8.9c.17,1.72.32,3.07.45,4.42s.28,2.7.46,4.42Z"/><path class="cls-2" d="M124.16,32.51,82,79.54c-5.59.09-8.73.13-14.33.2L55.87,69.19,99.26,20.83l11.2-.61Z"/><path class="cls-2" d="M101.46,13.17l-61,66.56-14.15.42L3.42,59.61,2.3,45.49l3.26-3.63,14.15-.42L31.16,51.71,74.94,3.32c5.52-.16,9.55-.25,15.08-.42Z"/></g></g></svg>